<svg width="657.9px" height="121.4px" xmlns="http://www.w3.org/2000/svg" viewBox="-78.94687499999998 14.300000000000004 657.89375 121.39999999999999" style="background: rgba(0, 0, 0, 0)" preserveAspectRatio="xMidYMid"><defs><linearGradient id="editing-gradient-gradient" x1="0" x2="1" y1="0.5" y2="0.5" gradientUnits="objectBoundingBox"><stop offset="0" stop-color="#6faade"></stop><stop offset="1" stop-color="#ff00ff"></stop></linearGradient></defs><g><g transform="matrix(1.1,0,0,1.5,-13.8,170.7)"><path d="M -19.4 -49 L -33.3 -49 L -25.2 -91.3 L -11.1 -91.3 L -19.4 -49 Z M 36.4 -47.7 L 36.4 -47.7 L 36.4 -47.7 Q 28.6 -47.7 28.6 -53.8 L 28.6 -53.8 L 28.6 -53.8 Q 28.6 -56.4 29.7 -61.5 L 29.7 -61.5 L 29.7 -61.5 Q 30.9 -66.6 31.2 -68.6 L 31.2 -68.6 L 31.2 -68.6 Q 32.1 -73.3 32.1 -74.7 L 32.1 -74.7 L 32.1 -74.7 Q 32.1 -78 29.7 -78 L 29.7 -78 L 29.7 -78 Q 28.1 -78 26.6 -75.8 L 26.6 -75.8 L 26.6 -75.8 Q 25 -73.6 24.3 -69.2 L 24.3 -69.2 L 20.4 -49 L 7.9 -47.7 L 11.3 -65.1 L 11.3 -65.1 Q 11.9 -68 12.4 -71.3 L 12.4 -71.3 L 12.4 -71.3 Q 12.9 -74.6 12.9 -75.1 L 12.9 -75.1 L 12.9 -75.1 Q 12.9 -78 10.8 -78 L 10.8 -78 L 10.8 -78 Q 9.3 -78 7.7 -75.8 L 7.7 -75.8 L 7.7 -75.8 Q 6.1 -73.7 5.2 -69.2 L 5.2 -69.2 L 1.3 -49 L -11.3 -47.7 L -4.6 -81.7 L 5.8 -82.9 L 4.7 -76.5 L 4.7 -76.5 Q 6.4 -79.9 9.5 -81.4 L 9.5 -81.4 L 9.5 -81.4 Q 12.6 -82.9 17.4 -82.9 L 17.4 -82.9 L 17.4 -82.9 Q 20.1 -82.9 21.9 -81.6 L 21.9 -81.6 L 21.9 -81.6 Q 23.7 -80.2 24.3 -78.1 L 24.3 -78.1 L 24.3 -78.1 Q 25.4 -80.3 28.1 -81.6 L 28.1 -81.6 L 28.1 -81.6 Q 30.9 -82.9 34.3 -82.9 L 34.3 -82.9 L 34.3 -82.9 Q 37.8 -82.9 39.5 -82.2 L 39.5 -82.2 L 39.5 -82.2 Q 41.2 -81.5 42.2 -80.2 L 42.2 -80.2 L 42.2 -80.2 Q 43.9 -78 43.9 -73.9 L 43.9 -73.9 L 43.9 -73.9 Q 43.9 -69.9 42.2 -61.5 L 42.2 -61.5 L 42.2 -61.5 Q 41.3 -57.4 41.3 -55.9 L 41.3 -55.9 L 41.3 -55.9 Q 41.3 -54.4 42.2 -53.5 L 42.2 -53.5 L 42.2 -53.5 Q 43 -52.6 44.3 -52.5 L 44.3 -52.5 L 44.3 -52.5 Q 43.7 -50.3 41.5 -49 L 41.5 -49 L 41.5 -49 Q 39.2 -47.7 36.4 -47.7 Z M 52 -50.9 L 52 -50.9 L 52 -50.9 Q 50.5 -52.6 49.8 -55.2 L 49.8 -55.2 L 49.8 -55.2 Q 49.2 -57.8 49.2 -62.1 L 49.2 -62.1 L 49.2 -62.1 Q 49.2 -66.4 50.6 -70.3 L 50.6 -70.3 L 50.6 -70.3 Q 52.1 -74.2 54.8 -77 L 54.8 -77 L 54.8 -77 Q 60.3 -82.9 69.4 -82.9 L 69.4 -82.9 L 69.4 -82.9 Q 72.7 -82.9 75 -81.8 L 75 -81.8 L 86 -82.9 L 81.2 -58 L 81.2 -58 Q 81 -57.2 81 -55.8 L 81 -55.8 L 81 -55.8 Q 81 -54.4 81.9 -53.5 L 81.9 -53.5 L 81.9 -53.5 Q 82.8 -52.6 84 -52.5 L 84 -52.5 L 84 -52.5 Q 83.4 -50.3 81.1 -49 L 81.1 -49 L 81.1 -49 Q 78.7 -47.7 76.1 -47.7 L 76.1 -47.7 L 76.1 -47.7 Q 73.5 -47.7 71.7 -48.7 L 71.7 -48.7 L 71.7 -48.7 Q 70 -49.7 69.5 -51.4 L 69.5 -51.4 L 69.5 -51.4 Q 68.4 -49.8 66.3 -48.8 L 66.3 -48.8 L 66.3 -48.8 Q 64.1 -47.7 61.2 -47.7 L 61.2 -47.7 L 61.2 -47.7 Q 58.3 -47.7 55.9 -48.5 L 55.9 -48.5 L 55.9 -48.5 Q 53.5 -49.3 52 -50.9 Z M 65.5 -76.9 L 65.5 -76.9 L 65.5 -76.9 Q 64.8 -75.8 64.1 -73.8 L 64.1 -73.8 L 64.1 -73.8 Q 63.5 -71.9 62.4 -66.6 L 62.4 -66.6 L 62.4 -66.6 Q 61.4 -61.4 61.4 -57.7 L 61.4 -57.7 L 61.4 -57.7 Q 61.4 -54 62 -52.9 L 62 -52.9 L 62 -52.9 Q 62.5 -51.8 63.6 -51.8 L 63.6 -51.8 L 63.6 -51.8 Q 65.6 -51.8 67.1 -53.8 L 67.1 -53.8 L 67.1 -53.8 Q 68.6 -55.7 69.2 -59.2 L 69.2 -59.2 L 72.6 -77.9 L 72.6 -77.9 Q 71.2 -79.1 69.7 -79.1 L 69.7 -79.1 L 69.7 -79.1 Q 68.1 -79.1 67.2 -78.6 L 67.2 -78.6 L 67.2 -78.6 Q 66.3 -78.1 65.5 -76.9 Z M 93.7 -75.8 L 93.7 -75.8 L 93.7 -75.8 Q 95.9 -78.8 99.2 -80.9 L 99.2 -80.9 L 99.2 -80.9 Q 102.5 -82.9 106.5 -82.9 L 106.5 -82.9 L 106.5 -82.9 Q 110.5 -82.9 112.5 -81.7 L 112.5 -81.7 L 125 -82.9 L 120.7 -58.4 L 120.7 -58.4 Q 118.4 -45.8 113.7 -40.9 L 113.7 -40.9 L 113.7 -40.9 Q 109.1 -36.2 100.3 -36.2 L 100.3 -36.2 L 100.3 -36.2 Q 93.6 -36.2 89.7 -38.3 L 89.7 -38.3 L 89.7 -38.3 Q 85.9 -40.4 85.9 -44 L 85.9 -44 L 85.9 -44 Q 85.9 -46.6 87.9 -48.1 L 87.9 -48.1 L 87.9 -48.1 Q 89.9 -49.6 92.9 -49.6 L 92.9 -49.6 L 92.9 -49.6 Q 95.6 -49.6 97.7 -48.4 L 97.7 -48.4 L 97.7 -48.4 Q 98.9 -47.7 99.5 -46.8 L 99.5 -46.8 L 99.5 -46.8 Q 98 -45.6 98 -43.4 L 98 -43.4 L 98 -43.4 Q 98 -40.7 100.6 -40.7 L 100.6 -40.7 L 100.6 -40.7 Q 104.8 -40.7 107.3 -50.8 L 107.3 -50.8 L 107.3 -50.8 Q 108 -53.6 108.6 -56.3 L 108.6 -56.3 L 108.6 -56.3 Q 105.7 -52.8 99.1 -52.8 L 99.1 -52.8 L 99.1 -52.8 Q 94.6 -52.8 92 -55 L 92 -55 L 92 -55 Q 89.4 -57.1 89.4 -62.3 L 89.4 -62.3 L 89.4 -62.3 Q 89.4 -65.5 90.4 -69.1 L 90.4 -69.1 L 90.4 -69.1 Q 91.5 -72.7 93.7 -75.8 Z M 102 -62.1 L 102 -62.1 L 102 -62.1 Q 102 -57.7 104.3 -57.7 L 104.3 -57.7 L 104.3 -57.7 Q 105.8 -57.7 107.3 -59.4 L 107.3 -59.4 L 107.3 -59.4 Q 108.4 -60.7 108.9 -62.7 L 108.9 -62.7 L 112.1 -79.2 L 112.1 -79.2 Q 111.8 -79.2 111.5 -79.4 L 111.5 -79.4 L 111.5 -79.4 Q 110.9 -79.6 110 -79.6 L 110 -79.6 L 110 -79.6 Q 106.1 -79.6 103.8 -73.2 L 103.8 -73.2 L 103.8 -73.2 Q 102 -68.2 102 -62.1 Z M 153.4 -59.8 L 153.4 -59.8 L 153.4 -59.8 Q 155 -58.7 155 -56.3 L 155 -56.3 L 155 -56.3 Q 155 -53.9 153.8 -52.4 L 153.8 -52.4 L 153.8 -52.4 Q 152.6 -50.9 150.6 -49.8 L 150.6 -49.8 L 150.6 -49.8 Q 146.5 -47.7 142.1 -47.7 L 142.1 -47.7 L 142.1 -47.7 Q 137.7 -47.7 135.1 -48.7 L 135.1 -48.7 L 135.1 -48.7 Q 132.5 -49.7 130.8 -51.4 L 130.8 -51.4 L 130.8 -51.4 Q 127.4 -54.8 127.4 -61 L 127.4 -61 L 127.4 -61 Q 127.4 -70.7 132.6 -76.6 L 132.6 -76.6 L 132.6 -76.6 Q 138.3 -82.9 148 -82.9 L 148 -82.9 L 148 -82.9 Q 154.1 -82.9 157.1 -80.4 L 157.1 -80.4 L 157.1 -80.4 Q 159.4 -78.5 159.4 -75.3 L 159.4 -75.3 L 159.4 -75.3 Q 159.4 -64.1 139.9 -64.1 L 139.9 -64.1 L 139.9 -64.1 Q 139.7 -62.4 139.7 -61 L 139.7 -61 L 139.7 -61 Q 139.7 -58 141 -56.9 L 141 -56.9 L 141 -56.9 Q 142.3 -55.8 144.7 -55.8 L 144.7 -55.8 L 144.7 -55.8 Q 147.1 -55.8 149.7 -56.9 L 149.7 -56.9 L 149.7 -56.9 Q 152.3 -58 153.4 -59.8 Z M 140.4 -66.8 L 140.4 -66.8 L 140.4 -66.8 Q 144.9 -66.8 147.5 -69.6 L 147.5 -69.6 L 147.5 -69.6 Q 150.2 -72.3 150.2 -76.6 L 150.2 -76.6 L 150.2 -76.6 Q 150.2 -78.1 149.6 -78.9 L 149.6 -78.9 L 149.6 -78.9 Q 149.1 -79.7 148 -79.7 L 148 -79.7 L 148 -79.7 Q 146.9 -79.7 146 -79.3 L 146 -79.3 L 146 -79.3 Q 145 -78.8 144.1 -77.4 L 144.1 -77.4 L 144.1 -77.4 Q 141.7 -74.2 140.4 -66.8 Z M 180.7 -71.5 L 180.7 -71.5 L 180.7 -71.5 Q 181.6 -73.8 181.6 -75.9 L 181.6 -75.9 L 181.6 -75.9 Q 181.6 -79.7 178.5 -79.7 L 178.5 -79.7 L 178.5 -79.7 Q 176.9 -79.7 175.6 -78.2 L 175.6 -78.2 L 175.6 -78.2 Q 174.3 -76.8 174.3 -75 L 174.3 -75 L 174.3 -75 Q 174.3 -73.7 175.3 -72.7 L 175.3 -72.7 L 175.3 -72.7 Q 176.8 -71.3 180.6 -69 L 180.6 -69 L 180.6 -69 Q 184.3 -66.7 185.8 -64.8 L 185.8 -64.8 L 185.8 -64.8 Q 187.2 -62.9 187.2 -60.3 L 187.2 -60.3 L 187.2 -60.3 Q 187.2 -57.7 186 -55.4 L 186 -55.4 L 186 -55.4 Q 184.7 -53 182.5 -51.3 L 182.5 -51.3 L 182.5 -51.3 Q 177.7 -47.7 170 -47.7 L 170 -47.7 L 170 -47.7 Q 165.8 -47.7 162.6 -49.9 L 162.6 -49.9 L 162.6 -49.9 Q 159.4 -52 159.4 -54.5 L 159.4 -54.5 L 159.4 -54.5 Q 159.4 -57 161.3 -58.5 L 161.3 -58.5 L 161.3 -58.5 Q 163.1 -60 165.8 -60 L 165.8 -60 L 165.8 -60 Q 168.5 -60 170.1 -58.9 L 170.1 -58.9 L 170.1 -58.9 Q 169.3 -56.8 169.3 -55.4 L 169.3 -55.4 L 169.3 -55.4 Q 169.3 -51.2 172.9 -51.2 L 172.9 -51.2 L 172.9 -51.2 Q 174.4 -51.2 175.4 -52.2 L 175.4 -52.2 L 175.4 -52.2 Q 176.5 -53.1 176.5 -54.8 L 176.5 -54.8 L 176.5 -54.8 Q 176.5 -58 171 -61.5 L 171 -61.5 L 171 -61.5 Q 166.5 -64.4 165.5 -65.6 L 165.5 -65.6 L 165.5 -65.6 Q 163.7 -67.6 163.7 -70.2 L 163.7 -70.2 L 163.7 -70.2 Q 163.7 -72.8 164.9 -75.2 L 164.9 -75.2 L 164.9 -75.2 Q 166.2 -77.6 168.4 -79.4 L 168.4 -79.4 L 168.4 -79.4 Q 173.1 -82.9 181.2 -82.9 L 181.2 -82.9 L 181.2 -82.9 Q 185.4 -82.9 187.8 -81.3 L 187.8 -81.3 L 187.8 -81.3 Q 190.3 -79.6 190.3 -76.8 L 190.3 -76.8 L 190.3 -76.8 Q 190.3 -74 188.6 -72.4 L 188.6 -72.4 L 188.6 -72.4 Q 186.9 -70.8 183.8 -70.8 L 183.8 -70.8 L 183.8 -70.8 Q 181.7 -70.8 180.7 -71.5 Z M 231.8 -69.6 L 244.7 -70.8 L 244.7 -70.8 Q 240.1 -60.7 240.1 -49 L 240.1 -49 L 240.1 -49 Q 238.3 -47.7 235.8 -47.7 L 235.8 -47.7 L 235.8 -47.7 Q 233.3 -47.7 231.7 -48.9 L 231.7 -48.9 L 231.7 -48.9 Q 230.1 -50.1 229.8 -51.3 L 229.8 -51.3 L 229.8 -51.3 Q 228.2 -49.7 225.6 -48.7 L 225.6 -48.7 L 225.6 -48.7 Q 223 -47.7 220.2 -47.7 L 220.2 -47.7 L 220.2 -47.7 Q 217.5 -47.7 215.1 -48.6 L 215.1 -48.6 L 215.1 -48.6 Q 212.7 -49.5 210.8 -51.5 L 210.8 -51.5 L 210.8 -51.5 Q 206.7 -55.9 206.7 -64.1 L 206.7 -64.1 L 206.7 -64.1 Q 206.7 -76.9 213.6 -84.6 L 213.6 -84.6 L 213.6 -84.6 Q 220.6 -92.5 233.1 -92.5 L 233.1 -92.5 L 233.1 -92.5 Q 241.7 -92.5 244.8 -88.1 L 244.8 -88.1 L 244.8 -88.1 Q 245.8 -86.6 245.8 -85 L 245.8 -85 L 245.8 -85 Q 245.8 -83.3 245 -81.8 L 245 -81.8 L 245 -81.8 Q 244.3 -80.4 243.1 -79.2 L 243.1 -79.2 L 243.1 -79.2 Q 240.4 -76.7 237 -76.7 L 237 -76.7 L 237 -76.7 Q 235.7 -76.7 234.4 -77.1 L 234.4 -77.1 L 234.4 -77.1 Q 234.6 -79 234.6 -81.3 L 234.6 -81.3 L 234.6 -81.3 Q 234.6 -83.5 234.5 -84.5 L 234.5 -84.5 L 234.5 -84.5 Q 234.3 -85.6 233.9 -86.4 L 233.9 -86.4 L 233.9 -86.4 Q 233.1 -88.1 231.3 -88.1 L 231.3 -88.1 L 231.3 -88.1 Q 229.5 -88.1 227.4 -86.2 L 227.4 -86.2 L 227.4 -86.2 Q 225.4 -84.2 223.8 -81 L 223.8 -81 L 223.8 -81 Q 220.3 -73.8 220.3 -65.2 L 220.3 -65.2 L 220.3 -65.2 Q 220.3 -61.2 221.8 -58.4 L 221.8 -58.4 L 221.8 -58.4 Q 223.5 -55.4 226.4 -55.4 L 226.4 -55.4 L 226.4 -55.4 Q 227.5 -55.4 228.4 -55.9 L 228.4 -55.9 L 228.4 -55.9 Q 229.3 -56.4 229.7 -56.8 L 229.7 -56.8 L 231.8 -69.6 Z M 250.6 -50.9 L 250.6 -50.9 L 250.6 -50.9 Q 249.1 -52.6 248.4 -55.2 L 248.4 -55.2 L 248.4 -55.2 Q 247.8 -57.8 247.8 -62.1 L 247.8 -62.1 L 247.8 -62.1 Q 247.8 -66.4 249.2 -70.3 L 249.2 -70.3 L 249.2 -70.3 Q 250.7 -74.2 253.4 -77 L 253.4 -77 L 253.4 -77 Q 258.9 -82.9 268 -82.9 L 268 -82.9 L 268 -82.9 Q 271.2 -82.9 273.6 -81.8 L 273.6 -81.8 L 284.6 -82.9 L 279.8 -58 L 279.8 -58 Q 279.6 -57.2 279.6 -55.8 L 279.6 -55.8 L 279.6 -55.8 Q 279.6 -54.4 280.5 -53.5 L 280.5 -53.5 L 280.5 -53.5 Q 281.4 -52.6 282.6 -52.5 L 282.6 -52.5 L 282.6 -52.5 Q 282 -50.3 279.7 -49 L 279.7 -49 L 279.7 -49 Q 277.3 -47.7 274.7 -47.7 L 274.7 -47.7 L 274.7 -47.7 Q 272.1 -47.7 270.3 -48.7 L 270.3 -48.7 L 270.3 -48.7 Q 268.6 -49.7 268 -51.4 L 268 -51.4 L 268 -51.4 Q 267 -49.8 264.8 -48.8 L 264.8 -48.8 L 264.8 -48.8 Q 262.7 -47.7 259.8 -47.7 L 259.8 -47.7 L 259.8 -47.7 Q 256.8 -47.7 254.5 -48.5 L 254.5 -48.5 L 254.5 -48.5 Q 252.1 -49.3 250.6 -50.9 Z M 264.1 -76.9 L 264.1 -76.9 L 264.1 -76.9 Q 263.4 -75.8 262.7 -73.8 L 262.7 -73.8 L 262.7 -73.8 Q 262.1 -71.9 261 -66.6 L 261 -66.6 L 261 -66.6 Q 260 -61.4 260 -57.7 L 260 -57.7 L 260 -57.7 Q 260 -54 260.6 -52.9 L 260.6 -52.9 L 260.6 -52.9 Q 261.1 -51.8 262.2 -51.8 L 262.2 -51.8 L 262.2 -51.8 Q 264.2 -51.8 265.7 -53.8 L 265.7 -53.8 L 265.7 -53.8 Q 267.2 -55.7 267.8 -59.2 L 267.8 -59.2 L 271.2 -77.9 L 271.2 -77.9 Q 269.8 -79.1 268.3 -79.1 L 268.3 -79.1 L 268.3 -79.1 Q 266.7 -79.1 265.8 -78.6 L 265.8 -78.6 L 265.8 -78.6 Q 264.8 -78.1 264.1 -76.9 Z M 303.3 -52.5 L 303.3 -52.5 L 303.3 -52.5 Q 301.3 -47.7 295 -47.7 L 295 -47.7 L 295 -47.7 Q 291.8 -47.7 289.7 -50 L 289.7 -50 L 289.7 -50 Q 288.1 -51.8 288.1 -53.9 L 288.1 -53.9 L 288.1 -53.9 Q 288.1 -58.7 290.3 -69.2 L 290.3 -69.2 L 295 -93.8 L 308 -95.1 L 301.8 -62.7 L 301.8 -62.7 Q 300.7 -58 300.7 -56.3 L 300.7 -56.3 L 300.7 -56.3 Q 300.7 -52.7 303.3 -52.5 Z M 324 -52.5 L 324 -52.5 L 324 -52.5 Q 322.1 -47.7 315.7 -47.7 L 315.7 -47.7 L 315.7 -47.7 Q 312.5 -47.7 310.5 -50 L 310.5 -50 L 310.5 -50 Q 308.8 -51.8 308.8 -53.9 L 308.8 -53.9 L 308.8 -53.9 Q 308.8 -58.7 311.1 -69.2 L 311.1 -69.2 L 315.7 -93.8 L 328.7 -95.1 L 322.5 -62.7 L 322.5 -62.7 Q 321.4 -58 321.4 -56.3 L 321.4 -56.3 L 321.4 -56.3 Q 321.4 -52.7 324 -52.5 Z M 355.4 -59.8 L 355.4 -59.8 L 355.4 -59.8 Q 357 -58.7 357 -56.3 L 357 -56.3 L 357 -56.3 Q 357 -53.9 355.8 -52.4 L 355.8 -52.4 L 355.8 -52.4 Q 354.6 -50.9 352.6 -49.8 L 352.6 -49.8 L 352.6 -49.8 Q 348.5 -47.7 344.1 -47.7 L 344.1 -47.7 L 344.1 -47.7 Q 339.7 -47.7 337.1 -48.7 L 337.1 -48.7 L 337.1 -48.7 Q 334.5 -49.7 332.7 -51.4 L 332.7 -51.4 L 332.7 -51.4 Q 329.4 -54.8 329.4 -61 L 329.4 -61 L 329.4 -61 Q 329.4 -70.7 334.6 -76.6 L 334.6 -76.6 L 334.6 -76.6 Q 340.2 -82.9 350 -82.9 L 350 -82.9 L 350 -82.9 Q 356.1 -82.9 359.1 -80.4 L 359.1 -80.4 L 359.1 -80.4 Q 361.4 -78.5 361.4 -75.3 L 361.4 -75.3 L 361.4 -75.3 Q 361.4 -64.1 341.9 -64.1 L 341.9 -64.1 L 341.9 -64.1 Q 341.6 -62.4 341.6 -61 L 341.6 -61 L 341.6 -61 Q 341.6 -58 343 -56.9 L 343 -56.9 L 343 -56.9 Q 344.3 -55.8 346.7 -55.8 L 346.7 -55.8 L 346.7 -55.8 Q 349.1 -55.8 351.7 -56.9 L 351.7 -56.9 L 351.7 -56.9 Q 354.3 -58 355.4 -59.8 Z M 342.3 -66.8 L 342.3 -66.8 L 342.3 -66.8 Q 346.9 -66.8 349.5 -69.6 L 349.5 -69.6 L 349.5 -69.6 Q 352.1 -72.3 352.1 -76.6 L 352.1 -76.6 L 352.1 -76.6 Q 352.1 -78.1 351.6 -78.9 L 351.6 -78.9 L 351.6 -78.9 Q 351.1 -79.7 350 -79.7 L 350 -79.7 L 350 -79.7 Q 348.9 -79.7 347.9 -79.3 L 347.9 -79.3 L 347.9 -79.3 Q 347 -78.8 346.1 -77.4 L 346.1 -77.4 L 346.1 -77.4 Q 343.7 -74.2 342.3 -66.8 Z M 383.6 -67 L 383.6 -67 L 383.6 -67 Q 385.9 -71.1 385.9 -75.3 L 385.9 -75.3 L 385.9 -75.3 Q 385.9 -78 383.9 -78 L 383.9 -78 L 383.9 -78 Q 382.3 -78 380.7 -75.4 L 380.7 -75.4 L 380.7 -75.4 Q 379.1 -72.8 378.6 -69.4 L 378.6 -69.4 L 375.2 -49 L 362 -47.7 L 368.5 -81.7 L 379.1 -82.9 L 377.9 -76.5 L 377.9 -76.5 Q 381.1 -82.9 388.1 -82.9 L 388.1 -82.9 L 388.1 -82.9 Q 391.8 -82.9 393.8 -81 L 393.8 -81 L 393.8 -81 Q 395.9 -79.1 395.9 -75.2 L 395.9 -75.2 L 395.9 -75.2 Q 395.9 -71.2 393.3 -68.7 L 393.3 -68.7 L 393.3 -68.7 Q 390.7 -66.2 386.3 -66.2 L 386.3 -66.2 L 386.3 -66.2 Q 384.3 -66.2 383.6 -67 Z M 417.2 -56.2 L 417.2 -56.2 L 417.2 -56.2 Q 413.9 -52.8 407.8 -52.8 L 407.8 -52.8 L 407.8 -52.8 Q 400.2 -52.8 398.6 -58.4 L 398.6 -58.4 L 398.6 -58.4 Q 398.1 -60 398.1 -61.9 L 398.1 -61.9 L 398.1 -61.9 Q 398.1 -63.7 398.5 -65.7 L 398.5 -65.7 L 401.5 -81.7 L 414.5 -82.9 L 411 -64.3 L 411 -64.3 Q 410.8 -63.5 410.6 -62.6 L 410.6 -62.6 L 410.6 -62.6 Q 410.4 -61.7 410.4 -60.8 L 410.4 -60.8 L 410.4 -60.8 Q 410.4 -59.8 410.8 -59.2 L 410.8 -59.2 L 410.8 -59.2 Q 411.1 -58.6 411.5 -58.2 L 411.5 -58.2 L 411.5 -58.2 Q 412.3 -57.7 413.7 -57.7 L 413.7 -57.7 L 413.7 -57.7 Q 415.1 -57.7 416.2 -59.4 L 416.2 -59.4 L 416.2 -59.4 Q 417.4 -61 418 -63.9 L 418 -63.9 L 421.5 -81.7 L 434.1 -82.9 L 429.3 -57.8 L 429.3 -57.8 Q 427 -45.5 422.1 -40.6 L 422.1 -40.6 L 422.1 -40.6 Q 419.6 -38.1 416.4 -37.1 L 416.4 -37.1 L 416.4 -37.1 Q 413.1 -36.2 409 -36.2 L 409 -36.2 L 409 -36.2 Q 402.3 -36.2 398.4 -38.3 L 398.4 -38.3 L 398.4 -38.3 Q 394.6 -40.4 394.6 -43.9 L 394.6 -43.9 L 394.6 -43.9 Q 394.6 -46.5 396.6 -48 L 396.6 -48 L 396.6 -48 Q 398.5 -49.5 401.6 -49.5 L 401.6 -49.5 L 401.6 -49.5 Q 404.3 -49.5 406.3 -48.4 L 406.3 -48.4 L 406.3 -48.4 Q 407.6 -47.7 408.1 -46.8 L 408.1 -46.8 L 408.1 -46.8 Q 406.7 -45.5 406.7 -43.4 L 406.7 -43.4 L 406.7 -43.4 Q 406.7 -40.6 409.2 -40.6 L 409.2 -40.6 L 409.2 -40.6 Q 413.5 -40.6 415.9 -50.3 L 415.9 -50.3 L 415.9 -50.3 Q 416.6 -53.2 417.2 -56.2 Z" fill="url(#editing-gradient-gradient)"></path></g></g><style>text {
  font-size: 64px;
  font-family: Arial Black;
  dominant-baseline: central;
  text-anchor: middle;
}</style></svg>